# xmcd
#
# Track frame offsets: 
#        150
#        16377
#        31001
#        49036
#        64545
#        81985
#        102182
#        128443
#        146183
#        165686
#        180500
#        210665
#
# Disc length: 3013 seconds
#
# Revision: 3
# Processed by: cddbd v1.5.2PL0 Copyright (c) Steve Scherf et al.
# Submitted via: ExactAudioCopy v1.0b4
#
DISCID=970bc30c
DTITLE=La Bionda - I Grandi Successi Originali [CD2)
DYEAR=2002
DGENRE=Disco
TTITLE0=Tune It Up
TTITLE1=I Wanna Be Your Lover
TTITLE2=A Moment Of Sunshine
TTITLE3=There For Me
TTITLE4=You're So Fine
TTITLE5=Johnie Don't Go Away
TTITLE6=Sandstorm
TTITLE7=Will She Or Won't She
TTITLE8=Night Flight
TTITLE9=Don't Cry Now
TTITLE10=I Got Your Number
TTITLE11=Cyclone Rock
EXTD=\n YEAR: 2002
EXTT0=
EXTT1=
EXTT2=
EXTT3=
EXTT4=
EXTT5=
EXTT6=
EXTT7=
EXTT8=
EXTT9=
EXTT10=
EXTT11=
PLAYORDER=
